<?xml version="1.0" encoding="UTF-8" standalone="no"?>
<!-- Created with Inkscape (http://www.inkscape.org/) -->

<svg
   version="1.1"
   id="svg1"
   width="1000"
   height="250"
   viewBox="0 0 1000 250"
   sodipodi:docname="logo.svg"
   inkscape:version="1.3.2 (091e20ef0f, 2023-11-25)"
   xml:space="preserve"
   inkscape:export-filename="logo.png"
   inkscape:export-xdpi="96"
   inkscape:export-ydpi="96"
   xmlns:inkscape="http://www.inkscape.org/namespaces/inkscape"
   xmlns:sodipodi="http://sodipodi.sourceforge.net/DTD/sodipodi-0.dtd"
   xmlns:xlink="http://www.w3.org/1999/xlink"
   xmlns="http://www.w3.org/2000/svg"
   xmlns:svg="http://www.w3.org/2000/svg"><defs
     id="defs1"><linearGradient
       id="linearGradient67"
       inkscape:collect="always"><stop
         style="stop-color:#000000;stop-opacity:0;"
         offset="0"
         id="stop68" /><stop
         style="stop-color:#545252;stop-opacity:1;"
         offset="1"
         id="stop67" /></linearGradient><linearGradient
       id="linearGradient65"
       inkscape:collect="always"><stop
         style="stop-color:#000000;stop-opacity:0;"
         offset="0"
         id="stop66" /><stop
         style="stop-color:#545252;stop-opacity:1;"
         offset="1"
         id="stop65" /></linearGradient><linearGradient
       id="linearGradient63"
       inkscape:collect="always"><stop
         style="stop-color:#000000;stop-opacity:0;"
         offset="0"
         id="stop64" /><stop
         style="stop-color:#565656;stop-opacity:1;"
         offset="1"
         id="stop63" /></linearGradient><linearGradient
       id="linearGradient61"
       inkscape:collect="always"><stop
         style="stop-color:#000000;stop-opacity:0;"
         offset="0"
         id="stop62" /><stop
         style="stop-color:#5d5d5d;stop-opacity:1;"
         offset="1"
         id="stop61" /></linearGradient><linearGradient
       id="linearGradient58"
       inkscape:collect="always"><stop
         style="stop-color:#000000;stop-opacity:0;"
         offset="0"
         id="stop60" /><stop
         style="stop-color:#5e5454;stop-opacity:1;"
         offset="1"
         id="stop59" /></linearGradient><linearGradient
       id="linearGradient50"
       inkscape:collect="always"><stop
         style="stop-color:#000000;stop-opacity:0;"
         offset="0"
         id="stop51" /><stop
         style="stop-color:#5d5757;stop-opacity:1;"
         offset="1"
         id="stop50" /></linearGradient><linearGradient
       id="linearGradient48"
       inkscape:collect="always"><stop
         style="stop-color:#000000;stop-opacity:0;"
         offset="0"
         id="stop49" /><stop
         style="stop-color:#544f4f;stop-opacity:1;"
         offset="1"
         id="stop48" /></linearGradient><linearGradient
       id="linearGradient46"
       inkscape:collect="always"><stop
         style="stop-color:#000000;stop-opacity:0;"
         offset="0"
         id="stop47" /><stop
         style="stop-color:#565555;stop-opacity:1;"
         offset="1"
         id="stop46" /></linearGradient><linearGradient
       id="linearGradient43"
       inkscape:collect="always"><stop
         style="stop-color:#000000;stop-opacity:0;"
         offset="0"
         id="stop44" /><stop
         style="stop-color:#555151;stop-opacity:1;"
         offset="1"
         id="stop43" /></linearGradient><linearGradient
       id="linearGradient40"
       inkscape:collect="always"><stop
         style="stop-color:#000000;stop-opacity:0;"
         offset="0"
         id="stop42" /><stop
         style="stop-color:#575454;stop-opacity:1;"
         offset="1"
         id="stop41" /></linearGradient><filter
       inkscape:label="Sharpen"
       inkscape:menu="Image Effects"
       inkscape:menu-tooltip="Sharpen edges and boundaries within the object, force=0.15"
       style="color-interpolation-filters:sRGB"
       id="filter36"
       x="-0.02108963"
       y="-0.072289154"
       width="1.0421793"
       height="1.1445783"><feColorMatrix
         values="1 0 0 0 0 0 1 0 0 0 0 0 1 0 0 0 0 0 1000 -500 "
         id="feColorMatrix36"
         result="fbSourceGraphic" /><feColorMatrix
         result="fbSourceGraphicAlpha"
         in="fbSourceGraphic"
         values="0 0 0 -1 0 0 0 0 -1 0 0 0 0 -1 0 0 0 0 1 0"
         id="feColorMatrix52" /><feColorMatrix
         id="feColorMatrix53"
         type="hueRotate"
         values="0"
         in="fbSourceGraphic" /><feColorMatrix
         id="feColorMatrix54"
         type="saturate"
         values="1" /><feColorMatrix
         id="feColorMatrix55"
         type="matrix"
         values="2 -1 0 0 0 0 2 -1 0 0 -1 0 2 0 0 0 0 0 1 0 "
         result="fbSourceGraphic" /><feColorMatrix
         result="fbSourceGraphicAlpha"
         in="fbSourceGraphic"
         values="0 0 0 -1 0 0 0 0 -1 0 0 0 0 -1 0 0 0 0 1 0"
         id="feColorMatrix58" /><feComposite
         id="feComposite58"
         in2="fbSourceGraphic"
         operator="arithmetic"
         k4="1"
         result="result1"
         in="fbSourceGraphic"
         k1="0"
         k2="0"
         k3="0" /><feMerge
         id="feMerge58"
         result="fbSourceGraphic"><feMergeNode
           id="feMergeNode58"
           in="result1" /><feMergeNode
           id="feMergeNode59"
           in="fbSourceGraphic" /></feMerge><feColorMatrix
         result="fbSourceGraphicAlpha"
         in="fbSourceGraphic"
         values="0 0 0 -1 0 0 0 0 -1 0 0 0 0 -1 0 0 0 0 1 0"
         id="feColorMatrix59" /><feColorMatrix
         id="feColorMatrix60"
         in="fbSourceGraphic"
         type="hueRotate"
         values="280"
         result="colormatrix1" /><feColorMatrix
         id="feColorMatrix61"
         type="matrix"
         values="0.5 0 0.5 0 0 0 1 0 0 0 0.5 0 0.5 0 0 0 0 0 1 0 "
         result="colormatrix2" /><feColorMatrix
         id="feColorMatrix62"
         type="hueRotate"
         values="100"
         result="colormatrix3" /><feBlend
         id="feBlend62"
         in2="colormatrix3"
         mode="normal"
         result="blend1" /><feColorMatrix
         id="feColorMatrix63"
         type="matrix"
         values="2.5 -0.75 -0.75 0 0 -0.75 2.5 -0.75 0 0 -0.75 -0.75 2.5 0 0 0 0 0 1 0 "
         result="colormatrix4" /><feComposite
         id="feComposite63"
         in="colormatrix4"
         in2="blend1"
         operator="arithmetic"
         k2="0"
         result="composite1"
         k1="0"
         k3="0"
         k4="0" /><feBlend
         id="feBlend63"
         in2="blend1"
         mode="normal"
         result="fbSourceGraphic" /><feColorMatrix
         result="fbSourceGraphicAlpha"
         in="fbSourceGraphic"
         values="0 0 0 -1 0 0 0 0 -1 0 0 0 0 -1 0 0 0 0 1 0"
         id="feColorMatrix64" /><feColorMatrix
         id="feColorMatrix65"
         in="fbSourceGraphic"
         type="hueRotate"
         values="280"
         result="colormatrix1" /><feColorMatrix
         id="feColorMatrix66"
         type="matrix"
         values="0.5 0 0.5 0 0 0 1 0 0 0 0.5 0 0.5 0 0 0 0 0 1 0 "
         result="colormatrix2" /><feColorMatrix
         id="feColorMatrix67"
         type="hueRotate"
         values="100"
         result="colormatrix3" /><feBlend
         id="feBlend67"
         in2="colormatrix3"
         mode="normal"
         result="blend1" /><feColorMatrix
         id="feColorMatrix68"
         type="matrix"
         values="2.5 -0.75 -0.75 0 0 -0.75 2.5 -0.75 0 0 -0.75 -0.75 2.5 0 0 0 0 0 1 0 "
         result="colormatrix4" /><feComposite
         id="feComposite68"
         in="colormatrix4"
         in2="blend1"
         operator="arithmetic"
         k2="0"
         result="composite1"
         k1="0"
         k3="0"
         k4="0" /><feBlend
         id="feBlend68"
         in2="blend1"
         mode="normal"
         result="fbSourceGraphic" /><feColorMatrix
         result="fbSourceGraphicAlpha"
         in="fbSourceGraphic"
         values="0 0 0 -1 0 0 0 0 -1 0 0 0 0 -1 0 0 0 0 1 0"
         id="feColorMatrix69" /><feColorMatrix
         id="feColorMatrix70"
         values="2 -0.5 -0.5 0 0 -0.5 2 -0.5 0 0 -0.5 -0.5 2 0 0 0 0 0 1 0 "
         in="fbSourceGraphic"
         result="fbSourceGraphic" /><feColorMatrix
         result="fbSourceGraphicAlpha"
         in="fbSourceGraphic"
         values="0 0 0 -1 0 0 0 0 -1 0 0 0 0 -1 0 0 0 0 1 0"
         id="feColorMatrix71" /><feColorMatrix
         id="feColorMatrix72"
         values="2 -0.5 -0.5 0 0 -0.5 2 -0.5 0 0 -0.5 -0.5 2 0 0 0 0 0 1 0 "
         in="fbSourceGraphic"
         result="fbSourceGraphic" /><feColorMatrix
         result="fbSourceGraphicAlpha"
         in="fbSourceGraphic"
         values="0 0 0 -1 0 0 0 0 -1 0 0 0 0 -1 0 0 0 0 1 0"
         id="feColorMatrix73" /><feColorMatrix
         id="feColorMatrix74"
         type="hueRotate"
         values="180"
         result="fbSourceGraphic"
         in="fbSourceGraphic" /><feColorMatrix
         id="feColorMatrix75"
         values="1 0 0 0 0 0 1 0 0 0 0 0 1 0 0 -0.2125 -0.7154 -0.0721 1 0 "
         in="fbSourceGraphic"
         result="result1" /><feColorMatrix
         id="feColorMatrix76"
         type="hueRotate"
         values="0" /><feColorMatrix
         id="feColorMatrix77"
         values="1 0 0 0 0 0 1 0 0 0 0 0 1 0 0 0 0 0 1 0 "
         result="result3" /><feComposite
         id="feComposite77"
         in2="result3"
         result="result6"
         operator="atop" /><feComposite
         id="feComposite78"
         in2="result6"
         operator="arithmetic"
         k2="0.5"
         k1="0.5"
         k3="0.5"
         in="result6"
         result="result4"
         k4="0" /><feBlend
         id="feBlend78"
         in2="fbSourceGraphic"
         mode="normal"
         result="result2"
         in="result4" /><feComposite
         id="feComposite79"
         in2="result2"
         operator="arithmetic"
         k2="1"
         result="result5"
         k1="0"
         k3="0"
         k4="0" /><feComposite
         id="feComposite80"
         in2="fbSourceGraphic"
         operator="in"
         result="fbSourceGraphic" /><feColorMatrix
         result="fbSourceGraphicAlpha"
         in="fbSourceGraphic"
         values="0 0 0 -1 0 0 0 0 -1 0 0 0 0 -1 0 0 0 0 1 0"
         id="feColorMatrix87" /><feGaussianBlur
         id="feGaussianBlur87"
         stdDeviation="5"
         result="result3"
         in="fbSourceGraphic" /><feColorMatrix
         id="feColorMatrix88"
         values="1 0 0 0 0 0 1 0 0 0 0 0 1 0 0 0 0 0 50 0 "
         result="result7" /><feComposite
         id="feComposite88"
         operator="in"
         in2="fbSourceGraphic"
         result="result9" /><feComposite
         id="feComposite89"
         in2="result7"
         operator="arithmetic"
         in="result9"
         k1="0.5"
         k3="0.5"
         result="result1"
         k2="0"
         k4="0" /><feBlend
         id="feBlend89"
         in2="result1"
         result="result5"
         mode="screen"
         in="fbSourceGraphic" /><feBlend
         id="feBlend90"
         in2="result5"
         mode="darken"
         in="result5"
         result="result6" /><feComposite
         id="feComposite90"
         in2="fbSourceGraphic"
         operator="in"
         result="fbSourceGraphic" /><feColorMatrix
         result="fbSourceGraphicAlpha"
         in="fbSourceGraphic"
         values="0 0 0 -1 0 0 0 0 -1 0 0 0 0 -1 0 0 0 0 1 0"
         id="feColorMatrix90" /><feConvolveMatrix
         id="feConvolveMatrix90"
         order="3 3"
         kernelMatrix="0 -0.15 0 -0.15 1.6 -0.15 0 -0.15 0"
         divisor="1"
         in="fbSourceGraphic"
         targetX="1"
         targetY="1" /></filter><linearGradient
       inkscape:collect="always"
       xlink:href="#linearGradient40"
       id="linearGradient42"
       x1="189.1348"
       y1="69.736715"
       x2="275.28144"
       y2="69.736715"
       gradientUnits="userSpaceOnUse"
       gradientTransform="translate(-73.978286,10.619032)" /><linearGradient
       inkscape:collect="always"
       xlink:href="#linearGradient43"
       id="linearGradient44"
       x1="185.91134"
       y1="84.406079"
       x2="223.7389"
       y2="84.406079"
       gradientUnits="userSpaceOnUse" /><linearGradient
       inkscape:collect="always"
       xlink:href="#linearGradient46"
       id="linearGradient47"
       x1="103.73185"
       y1="124.4709"
       x2="193.45955"
       y2="124.4709"
       gradientUnits="userSpaceOnUse"
       gradientTransform="translate(0.41639237,0.34181458)" /><linearGradient
       inkscape:collect="always"
       xlink:href="#linearGradient48"
       id="linearGradient49"
       x1="115.57046"
       y1="171.76304"
       x2="200.02668"
       y2="171.76304"
       gradientUnits="userSpaceOnUse" /><linearGradient
       inkscape:collect="always"
       xlink:href="#linearGradient50"
       id="linearGradient51"
       x1="184.7574"
       y1="170.89734"
       x2="224.06104"
       y2="170.89734"
       gradientUnits="userSpaceOnUse" /><linearGradient
       inkscape:collect="always"
       xlink:href="#linearGradient58"
       id="linearGradient60"
       x1="97.396064"
       y1="28.749505"
       x2="169.76564"
       y2="28.749505"
       gradientUnits="userSpaceOnUse"
       gradientTransform="translate(-9.7773439,21.653809)" /><linearGradient
       inkscape:collect="always"
       xlink:href="#linearGradient61"
       id="linearGradient62"
       x1="86.589398"
       y1="202.01878"
       x2="165.53863"
       y2="202.01878"
       gradientUnits="userSpaceOnUse" /><linearGradient
       inkscape:collect="always"
       xlink:href="#linearGradient63"
       id="linearGradient64"
       x1="30.238361"
       y1="125.01325"
       x2="97.077036"
       y2="125.01325"
       gradientUnits="userSpaceOnUse" /><linearGradient
       inkscape:collect="always"
       xlink:href="#linearGradient65"
       id="linearGradient66"
       x1="31.354148"
       y1="82.747464"
       x2="88.498575"
       y2="82.747464"
       gradientUnits="userSpaceOnUse" /><linearGradient
       inkscape:collect="always"
       xlink:href="#linearGradient67"
       id="linearGradient68"
       x1="32.425273"
       y1="173.05588"
       x2="90.423264"
       y2="173.05588"
       gradientUnits="userSpaceOnUse" /></defs><sodipodi:namedview
     id="namedview1"
     pagecolor="#ffffff"
     bordercolor="#000000"
     borderopacity="0.25"
     inkscape:showpageshadow="2"
     inkscape:pageopacity="0.0"
     inkscape:pagecheckerboard="0"
     inkscape:deskcolor="#d1d1d1"
     inkscape:zoom="16"
     inkscape:cx="466.625"
     inkscape:cy="77.46875"
     inkscape:window-width="1876"
     inkscape:window-height="1156"
     inkscape:window-x="0"
     inkscape:window-y="0"
     inkscape:window-maximized="1"
     inkscape:current-layer="text96"
     inkscape:export-bgcolor="#ffffffff"
     showgrid="false" /><g
     inkscape:groupmode="layer"
     inkscape:label="Image"
     id="g1"><g
       id="text96"
       transform="scale(1.0218866,0.97858217)"
       inkscape:label="text"><path
         d="m 292.60168,181.08565 q -12.54401,0 -23.59469,-5.67467 -10.75201,-5.67467 -17.32269,-16.42668 -6.57067,-10.75202 -6.57067,-25.68537 0.29867,-20.60802 13.44001,-32.5547 13.14135,-12.245344 34.04804,-12.245344 8.06401,0 15.82935,1.792002 7.76534,1.792002 13.44002,6.570674 4.48,3.584008 4.48,9.258678 0,4.77867 -3.584,8.66134 -3.28534,3.88267 -8.36268,3.88267 -3.28534,0 -5.97334,-1.792 -4.48,-2.38934 -8.06401,-3.28534 -3.28533,-0.896 -7.46667,-0.896 -9.85601,0 -16.12802,5.67468 -6.27201,5.67467 -6.27201,15.23201 0,11.05068 6.86934,17.32269 6.86935,5.97334 16.12802,5.97334 10.45335,0 19.71202,-7.76534 3.58401,-2.68801 6.86934,-2.68801 4.77868,0 8.06401,3.88267 3.58401,3.88267 3.58401,8.96001 0,2.09067 -0.896,4.77868 -0.89601,2.38933 -3.28534,4.77867 -8.06401,6.57067 -17.32269,9.25867 -8.96001,2.98667 -17.62135,2.98667 z m 96.76834,0 q -12.84269,0 -23.5947,-5.97334 -10.75201,-5.97334 -17.32268,-16.42668 -6.27201,-10.75201 -6.27201,-24.19203 0,-13.73868 6.27201,-23.89336 6.57067,-10.45334 17.32268,-16.128014 10.75201,-5.97334 23.5947,-5.97334 13.14134,0 23.59469,5.97334 10.75201,5.674674 17.02402,16.128014 6.272,10.15468 6.272,23.89336 0,13.44002 -6.272,24.19203 -6.27201,10.45334 -17.02402,16.42668 -10.45335,5.97334 -23.59469,5.97334 z m 0,-24.19202 q 9.25867,0 14.93334,-6.27201 5.97334,-6.57067 5.97334,-16.12802 0,-9.85601 -5.97334,-15.82935 -5.67467,-5.97334 -14.93334,-5.97334 -8.96001,0 -15.23202,5.97334 -5.97334,5.97334 -5.97334,15.82935 0,9.55735 5.97334,16.12802 6.27201,6.27201 15.23202,6.27201 z m 95.87196,24.19202 q -20.30936,0 -33.4507,-8.36267 -2.68801,-1.792 -3.88267,-4.18134 -1.19467,-2.688 -1.19467,-5.07734 0,-5.07734 3.28533,-9.25868 3.58401,-4.18133 8.66135,-4.18133 2.38933,0 4.77867,1.19466 5.376,2.38934 12.24535,4.18134 6.86934,1.49334 12.54401,1.49334 11.05068,0 11.05068,-5.07734 0,-2.98667 -2.688,-5.07734 -2.68801,-2.38934 -12.54402,-3.28534 -3.88267,-0.29866 -10.15468,-1.19467 -5.97334,-0.896 -11.94668,-3.28533 -5.97334,-2.68801 -10.15467,-7.76534 -3.88267,-5.07734 -3.88267,-13.73869 0,-13.44001 10.15467,-21.205352 10.15468,-7.765342 27.1787,-7.765342 9.85601,0 18.51735,2.090669 8.96001,2.090669 13.44002,6.272007 4.18134,3.882668 4.18134,8.960008 0,4.48001 -3.28534,8.06401 -3.28534,3.584 -8.36268,3.584 -2.688,0 -5.07734,-1.19466 -3.584,-2.38934 -9.25867,-3.58401 -5.37601,-1.19467 -11.05068,-1.19467 -11.34935,0 -11.34935,4.77868 0,2.09067 2.09067,3.88267 2.38934,1.49333 10.45335,2.688 5.07734,0.59733 11.64801,1.792 6.57067,0.896 12.54401,3.58401 6.27201,2.38933 10.45335,8.064 4.18134,5.67468 4.18134,15.53069 0,13.44001 -10.75202,21.50402 -10.75201,7.76534 -28.37336,7.76534 z m 93.7817,0 q -20.01069,0 -32.25603,-12.54401 -11.94668,-12.84268 -11.94668,-34.04804 0,-21.20535 11.64801,-33.4507 11.94668,-12.544014 31.6587,-12.544014 12.84268,0 22.99736,9.258677 V 58.632187 q 0,-5.077339 3.584,-8.362676 3.58401,-3.584004 9.25868,-3.584004 5.97334,0 9.55734,3.584004 3.88267,3.285337 3.88267,8.064009 v 111.10412 q 0,5.07734 -3.88267,8.36268 -3.584,3.28533 -9.55734,3.28533 -9.55735,0 -12.24535,-8.36267 -9.25867,8.36267 -22.69869,8.36267 z m 2.09067,-24.19202 q 8.96001,0 14.33601,-6.27201 5.67468,-6.57067 5.67468,-16.12802 0,-9.85601 -5.67468,-15.82935 -5.376,-5.97334 -14.33601,-5.97334 -9.25868,0 -14.93335,5.97334 -5.37601,5.97334 -5.37601,15.82935 0,9.55735 5.37601,16.12802 5.67467,6.27201 14.93335,6.27201 z m 107.52006,24.19202 q -20.01069,0 -32.5547,-12.54401 -12.24535,-12.84268 -12.24535,-34.04804 0,-21.20535 11.94668,-33.4507 12.24535,-12.544014 31.95737,-12.544014 14.03735,0 24.49069,9.856011 1.19467,-3.584004 4.48001,-5.97334 3.28534,-2.389336 7.76534,-2.389336 5.97334,0 9.55734,3.584004 3.88268,3.285337 3.88268,8.064005 v 67.79741 q 0,5.07734 -3.88268,8.36268 -3.584,3.28533 -9.55734,3.28533 -9.85601,0 -12.24535,-8.66134 -9.55734,8.66134 -23.59469,8.66134 z m 2.09067,-24.19202 q 9.55734,0 15.23202,-6.27201 5.67467,-6.57067 5.67467,-16.12802 0,-9.85601 -5.67467,-15.82935 -5.67468,-5.97334 -15.23202,-5.97334 -9.25868,0 -15.23202,5.97334 -5.67467,5.97334 -5.67467,15.82935 0,9.55735 5.67467,16.12802 5.97334,6.27201 15.23202,6.27201 z m 106.92302,24.19202 q -12.84268,0 -21.20536,-7.46667 -8.36268,-7.46668 -8.36268,-22.99736 v -32.25603 q 0,-2.98667 -2.98667,-2.98667 h -4.48 q -5.37601,0 -8.06401,-3.28534 -2.688,-3.28534 -2.688,-8.36268 0,-5.376003 2.688,-8.66134 2.688,-3.584004 8.06401,-3.584004 h 4.48 q 2.98667,0 2.98667,-2.98667 V 66.397529 q 0,-5.077339 3.58401,-8.661343 3.584,-3.584004 9.25867,-3.584004 5.67468,0 9.25868,3.584004 3.88267,3.285337 3.88267,8.661343 v 22.101357 q 0,2.98667 2.98667,2.98667 h 11.05068 q 5.07734,0 8.36268,3.584004 3.584,3.584004 3.584,8.66134 0,5.07734 -3.584,8.36268 -3.28534,3.28534 -8.66135,3.28534 h -10.75201 q -2.98667,0 -2.98667,2.98667 v 28.07469 q 0,5.37601 1.792,7.46668 2.09067,2.09067 5.07734,2.09067 1.19467,0 4.77867,-0.59734 3.58401,-0.896 4.48001,-0.896 4.77867,0 8.06401,3.58401 3.28534,3.584 3.28534,8.66134 0,3.88267 -2.38934,7.16801 -2.09067,3.28533 -6.86934,4.77867 -3.88267,1.19467 -7.46668,1.792 -3.584,0.59733 -7.168,0.59733 z m 77.65315,0 q -20.01069,0 -32.5547,-12.54401 -12.24535,-12.84268 -12.24535,-34.04804 0,-21.20535 11.94668,-33.4507 12.24535,-12.544014 31.95737,-12.544014 14.03735,0 24.49069,9.856011 1.19467,-3.584004 4.48001,-5.97334 3.28534,-2.389336 7.76534,-2.389336 5.97334,0 9.55734,3.584004 3.88267,3.285337 3.88267,8.064005 v 67.79741 q 0,5.07734 -3.88267,8.36268 -3.584,3.28533 -9.55734,3.28533 -9.85601,0 -12.24535,-8.66134 -9.55734,8.66134 -23.59469,8.66134 z m 2.09067,-24.19202 q 9.55734,0 15.23202,-6.27201 5.67467,-6.57067 5.67467,-16.12802 0,-9.85601 -5.67467,-15.82935 -5.67468,-5.97334 -15.23202,-5.97334 -9.25868,0 -15.23202,5.97334 -5.67467,5.97334 -5.67467,15.82935 0,9.55735 5.67467,16.12802 5.97334,6.27201 15.23202,6.27201 z"
         id="path2"
         style="display:inline;fill:#1976fe;fill-opacity:0.901961;stroke:#5498fb;stroke-opacity:0.917647" /></g><g
       id="g68"
       inkscape:label="logo"><path
         style="font-variation-settings:normal;opacity:1;mix-blend-mode:normal;vector-effect:none;fill:#f23665;fill-opacity:1;stroke:url(#linearGradient42);stroke-width:0.999999px;stroke-linecap:butt;stroke-linejoin:miter;stroke-miterlimit:4;stroke-dasharray:none;stroke-dashoffset:0;-inkscape-stroke:none;stop-color:#000000;stop-opacity:1"
         d="m 117.41454,63.840622 54.75293,-19.26709 c 3.21147,-0.234545 6.32995,0.708604 9.16992,5.179199 l 19.45166,63.350579 c 0.17476,1.48847 -1.37309,3.45675 -3.76025,2.99756 L 117.28075,69.003708 c -2.7156,-2.169174 -1.57615,-4.055408 0.13379,-5.163086 z"
         id="path11"
         sodipodi:nodetypes="ccccccc" /><path
         style="font-variation-settings:normal;opacity:1;vector-effect:none;fill:#f23665;fill-opacity:1;stroke:url(#linearGradient44);stroke-width:0.999999px;stroke-linecap:butt;stroke-linejoin:miter;stroke-miterlimit:4;stroke-dasharray:none;stroke-dashoffset:0;stroke-opacity:1;-inkscape-stroke:none;stop-color:#000000;stop-opacity:1"
         d="m 186.42553,49.713612 25.40923,64.907778 c 1.57805,2.20007 3.20406,4.36413 6.44648,5.31435 1.10456,0.21374 2.42463,0.10202 3.13572,-0.19473 2.15225,-1.15262 1.91277,-2.15569 1.65883,-3.26087 L 187.48975,49.122071 c -0.20789,-0.445368 -1.20422,-0.695485 -1.06422,0.591541 z"
         id="path42"
         sodipodi:nodetypes="ccccccc" /><path
         style="font-variation-settings:normal;opacity:1;vector-effect:none;fill:#f23665;fill-opacity:1;stroke:url(#linearGradient47);stroke-width:0.999999px;stroke-linecap:butt;stroke-linejoin:miter;stroke-miterlimit:4;stroke-dasharray:none;stroke-dashoffset:0;-inkscape-stroke:none;stop-color:#000000;stop-opacity:1"
         d="m 104.64835,78.332103 c 0.71113,-3.600794 3.65957,-4.004985 5.32091,-3.781364 l 81.11876,47.079221 c 3.55191,3.2808 2.33981,5.67949 0.5728,7.46778 l -80.84108,45.92759 c -2.58798,0.49745 -5.35391,-0.97804 -5.95844,-3.04845 z"
         id="path44"
         sodipodi:nodetypes="ccccccc" /><path
         style="font-variation-settings:normal;opacity:1;vector-effect:none;fill:#f23665;fill-opacity:1;stroke:url(#linearGradient49);stroke-width:0.999999px;stroke-linecap:butt;stroke-linejoin:miter;stroke-miterlimit:4;stroke-dasharray:none;stroke-dashoffset:0;stroke-opacity:1;-inkscape-stroke:none;stop-color:#000000;stop-opacity:1"
         d="m 117.542,178.86038 77.50968,-44.41549 c 3.17415,-0.95643 4.86771,-0.21753 4.39628,3.00037 l -18.42482,69.16561 c -2.2903,3.31502 -5.02401,3.0842 -7.75021,2.5605 l -55.36356,-25.33155 c -2.75026,-1.4236 -2.02445,-3.5625 -0.36737,-4.97944 z"
         id="path47"
         sodipodi:nodetypes="ccccccc" /><path
         style="font-variation-settings:normal;opacity:1;vector-effect:none;fill:#f23665;fill-opacity:1;stroke:url(#linearGradient51);stroke-width:0.999999px;stroke-linecap:butt;stroke-linejoin:miter;stroke-miterlimit:4;stroke-dasharray:none;stroke-dashoffset:0;stroke-opacity:1;-inkscape-stroke:none;stop-color:#000000;stop-opacity:1"
         d="m 185.26094,208.23052 22.23342,-64.3874 c 1.50408,-3.78543 2.54398,-5.09348 3.70822,-6.6285 3.16154,-2.99056 5.19404,-3.73288 7.14668,-4.31618 1.65348,-0.36484 3.16907,-0.23238 4.37695,1.00991 0.62431,0.91504 1.35211,1.55728 0.30802,4.64552 l -36.54598,70.29607 c -1.01559,0.53279 -1.20158,-0.008 -1.22731,-0.61942 z"
         id="path49"
         sodipodi:nodetypes="cccccccc" /><path
         style="font-variation-settings:normal;opacity:1;vector-effect:none;fill:#f23665;fill-opacity:1;stroke:url(#linearGradient60);stroke-width:0.999999px;stroke-linecap:butt;stroke-linejoin:miter;stroke-miterlimit:4;stroke-dasharray:none;stroke-dashoffset:0;-inkscape-stroke:none;stop-color:#000000;stop-opacity:1"
         d="m 90.575686,44.481445 67.452154,-2.409179 c 1.87978,0.177723 1.92984,1.094088 0.23609,1.758789 l -52.27491,14.406982 c -2.96908,0.672332 -4.43816,0.820334 -8.377204,-0.450195 l -9.074828,-8.11084 c -0.74729,-1.591711 -0.366623,-2.84097 0.03398,-3.653077 0.363649,-0.62148 1.016146,-1.141186 2.004708,-1.54248 z"
         id="path51"
         sodipodi:nodetypes="cccccccc" /><path
         style="font-variation-settings:normal;opacity:1;vector-effect:none;fill:#f23665;fill-opacity:1;stroke:url(#linearGradient62);stroke-width:0.999999px;stroke-linecap:butt;stroke-linejoin:miter;stroke-miterlimit:4;stroke-dasharray:none;stroke-dashoffset:0;stroke-opacity:1;-inkscape-stroke:none;stop-color:#000000;stop-opacity:1"
         d="m 87.213691,207.27204 10.394322,-14.23051 c 1.947424,-1.65603 3.347267,-2.22161 4.913177,-2.44349 1.39585,-0.21882 2.86916,-0.31281 6.21892,0.34116 l 55.56554,20.24059 c 0.56242,0.36678 1.51024,1.67213 -0.4226,2.41756 l -73.102692,-2.09197 c -2.245408,-0.24569 -4.299391,-1.69063 -3.566667,-4.23334 z"
         id="path60"
         sodipodi:nodetypes="cccccccc" /><path
         style="font-variation-settings:normal;opacity:1;vector-effect:none;fill:#f23665;fill-opacity:1;stroke:url(#linearGradient64);stroke-width:0.999999px;stroke-linecap:butt;stroke-linejoin:miter;stroke-miterlimit:4;stroke-dasharray:none;stroke-dashoffset:0;stroke-opacity:1;-inkscape-stroke:none;stop-color:#000000;stop-opacity:1"
         d="m 31.547045,130.6473 58.220991,41.1106 c 4.792653,1.80045 6.115717,-0.87425 6.808319,-3.17473 L 95.781251,82.590821 C 95.693473,77.35246 92.1417,77.261432 90.202394,78.055909 L 33.299073,123.29468 c -3.284156,2.9367 -2.857053,5.29162 -1.752028,7.35262 z"
         id="path62"
         sodipodi:nodetypes="ccccccc" /><path
         style="font-variation-settings:normal;opacity:1;vector-effect:none;fill:#f23665;fill-opacity:1;stroke:url(#linearGradient66);stroke-width:0.999999px;stroke-linecap:butt;stroke-linejoin:miter;stroke-miterlimit:4;stroke-dasharray:none;stroke-dashoffset:0;stroke-opacity:1;-inkscape-stroke:none;stop-color:#000000;stop-opacity:1"
         d="M 32.121224,114.83097 70.949949,50.78981 c 2.492558,-2.165918 5.34063,-2.219966 7.782038,-0.957948 l 8.462774,9.096926 c 0.608172,1.547282 1.745568,5.298845 -0.676033,8.597494 l -52.90457,48.461678 c -0.872469,0.67246 -2.371745,0.96062 -1.492934,-1.15699 z"
         id="path64"
         sodipodi:nodetypes="ccccccc" /><path
         style="font-variation-settings:normal;opacity:1;vector-effect:none;fill:#f23665;fill-opacity:1;stroke:url(#linearGradient68);stroke-width:0.999999px;stroke-linecap:butt;stroke-linejoin:miter;stroke-miterlimit:4;stroke-dasharray:none;stroke-dashoffset:0;stroke-opacity:1;-inkscape-stroke:none;stop-color:#000000;stop-opacity:1"
         d="m 33.024097,141.19728 37.755635,62.95011 c 2.920736,3.50882 5.75349,2.79243 7.478829,1.22536 l 10.672893,-14.00611 c 1.396,-2.49254 1.426935,-5.94293 -0.586264,-9.33878 L 35.070149,139.81552 c -0.826649,-0.42017 -2.569581,-0.94293 -2.046052,1.38176 z"
         id="path66"
         sodipodi:nodetypes="ccccccc" /></g></g></svg>
